<?xml version="1.0"?>
<svg xmlns="http://www.w3.org/2000/svg" xmlns:xlink="http://www.w3.org/1999/xlink" xmlns:svgjs="http://svgjs.com/svgjs" version="1.1" width="512" height="512" x="0" y="0" viewBox="0 0 152 152" style="enable-background:new 0 0 512 512" xml:space="preserve"><g><g xmlns="http://www.w3.org/2000/svg" id="Layer_2" data-name="Layer 2"><g id="Color"><path id="_10.Linkedin" d="m76 0a76 76 0 1 0 76 76 76 76 0 0 0 -76-76zm-22.1 116h-16.58v-53.41h16.58zm-8.3-60.7a9.65 9.65 0 1 1 9.61-9.7 9.68 9.68 0 0 1 -9.61 9.7zm70.4 60.7h-16.57v-26c0-6.2-.12-14.15-8.62-14.15s-10 6.74-10 13.7v26.45h-16.51v-53.41h15.91v7.28h.23c2.21-4.2 7.62-8.63 15.69-8.63 16.78 0 19.87 11.06 19.87 25.42z" data-name="10.Linkedin" fill="#0196d6" data-original="#000000" style=""/></g></g></g></svg>
